<svg id="visual" viewBox="0 0 900 600" width="900" height="600" xmlns="http://www.w3.org/2000/svg" xmlns:xlink="http://www.w3.org/1999/xlink" version="1.1"><rect x="0" y="0" width="900" height="600" fill="#dabe99"></rect><path d="M0 380L21.5 383.8C43 387.7 86 395.3 128.8 398.7C171.7 402 214.3 401 257.2 402C300 403 343 406 385.8 401.5C428.7 397 471.3 385 514.2 383C557 381 600 389 642.8 390.3C685.7 391.7 728.3 386.3 771.2 389.2C814 392 857 403 878.5 408.5L900 414L900 601L878.5 601C857 601 814 601 771.2 601C728.3 601 685.7 601 642.8 601C600 601 557 601 514.2 601C471.3 601 428.7 601 385.8 601C343 601 300 601 257.2 601C214.3 601 171.7 601 128.8 601C86 601 43 601 21.5 601L0 601Z" fill="#cf9f6e"></path><path d="M0 463L21.5 454C43 445 86 427 128.8 423.5C171.7 420 214.3 431 257.2 437C300 443 343 444 385.8 436C428.7 428 471.3 411 514.2 416C557 421 600 448 642.8 454.8C685.7 461.7 728.3 448.3 771.2 444.2C814 440 857 445 878.5 447.5L900 450L900 601L878.5 601C857 601 814 601 771.2 601C728.3 601 685.7 601 642.8 601C600 601 557 601 514.2 601C471.3 601 428.7 601 385.8 601C343 601 300 601 257.2 601C214.3 601 171.7 601 128.8 601C86 601 43 601 21.5 601L0 601Z" fill="#a87854"></path><path d="M0 495L21.5 486C43 477 86 459 128.8 458C171.7 457 214.3 473 257.2 476.8C300 480.7 343 472.3 385.8 470.5C428.7 468.7 471.3 473.3 514.2 479.2C557 485 600 492 642.8 489.2C685.7 486.3 728.3 473.7 771.2 465.8C814 458 857 455 878.5 453.5L900 452L900 601L878.5 601C857 601 814 601 771.2 601C728.3 601 685.7 601 642.8 601C600 601 557 601 514.2 601C471.3 601 428.7 601 385.8 601C343 601 300 601 257.2 601C214.3 601 171.7 601 128.8 601C86 601 43 601 21.5 601L0 601Z" fill="#80543b"></path><path d="M0 526L21.5 519.3C43 512.7 86 499.3 128.8 500.5C171.7 501.7 214.3 517.3 257.2 524.3C300 531.3 343 529.7 385.8 521.8C428.7 514 471.3 500 514.2 497.2C557 494.3 600 502.7 642.8 504.3C685.7 506 728.3 501 771.2 496.7C814 492.3 857 488.7 878.5 486.8L900 485L900 601L878.5 601C857 601 814 601 771.2 601C728.3 601 685.7 601 642.8 601C600 601 557 601 514.2 601C471.3 601 428.7 601 385.8 601C343 601 300 601 257.2 601C214.3 601 171.7 601 128.8 601C86 601 43 601 21.5 601L0 601Z" fill="#593223"></path><path d="M0 547L21.5 549.8C43 552.7 86 558.3 128.8 559.2C171.7 560 214.3 556 257.2 553.2C300 550.3 343 548.7 385.8 548.3C428.7 548 471.3 549 514.2 546.2C557 543.3 600 536.7 642.8 539C685.7 541.3 728.3 552.7 771.2 558.5C814 564.3 857 564.7 878.5 564.8L900 565L900 601L878.5 601C857 601 814 601 771.2 601C728.3 601 685.7 601 642.8 601C600 601 557 601 514.2 601C471.3 601 428.7 601 385.8 601C343 601 300 601 257.2 601C214.3 601 171.7 601 128.8 601C86 601 43 601 21.5 601L0 601Z" fill="#33140a"></path></svg>